<svg version="1.1" id="Layer_1" xmlns="http://www.w3.org/2000/svg" xmlns:xlink="http://www.w3.org/1999/xlink" x="0px" y="0px"
	 width="100%" viewBox="0 0 101 100" enable-background="new 0 0 101 100" xml:space="preserve">
<path fill="#FBFBFB" opacity="1.000000" stroke="none" 
	d="
M60.000000,101.000000 
	C40.000004,101.000000 20.500008,101.000000 1.000008,101.000000 
	C1.000005,67.666679 1.000005,34.333351 1.000003,1.000021 
	C34.666653,1.000014 68.333305,1.000014 101.999969,1.000007 
	C101.999977,34.333313 101.999977,67.666626 101.999985,100.999969 
	C88.166664,101.000000 74.333336,101.000000 60.000000,101.000000 
M20.203005,23.276762 
	C20.783585,24.234856 21.364164,25.192947 22.472519,26.563471 
	C23.968033,27.378487 25.463549,28.193502 26.904654,29.666210 
	C26.963875,30.101263 27.023096,30.536316 26.893122,31.895529 
	C26.956188,40.604893 27.019255,49.314259 26.957914,58.675335 
	C26.969658,59.116478 26.981401,59.557617 26.613718,60.375576 
	C26.373863,60.844067 26.134007,61.312553 25.089907,61.931919 
	C24.448151,62.089355 23.740191,62.124943 23.178669,62.430046 
	C22.069967,63.032455 21.042353,63.784096 19.981207,64.474030 
	C21.231516,64.895157 22.469467,65.629402 23.734426,65.679337 
	C27.701424,65.835915 31.684158,65.846672 35.647667,65.649689 
	C36.566143,65.604034 37.432438,64.508415 39.302414,63.221985 
	C36.197670,62.685936 34.589058,62.408203 32.464016,61.841110 
	C31.971321,61.225922 31.478624,60.610733 31.056828,59.503124 
	C31.056828,59.503124 30.924013,59.023685 31.083260,58.095287 
	C31.083260,47.894848 31.083260,37.694412 31.083260,27.493973 
	C32.315144,28.109779 32.757244,28.905005 33.089397,29.743769 
	C36.745556,38.976425 40.387875,48.214577 44.027332,57.453842 
	C47.350754,65.890793 48.436226,66.444305 57.499088,64.331192 
	C60.286655,53.053570 63.035080,41.797626 65.904213,30.572540 
	C66.147614,29.620256 67.197418,28.874088 67.801933,28.532646 
	C67.850235,28.694057 67.898529,28.855469 67.689415,29.921366 
	C67.740753,41.931694 67.792091,53.942020 67.792435,66.584671 
	C68.182640,66.676376 68.572845,66.768082 69.782066,66.975082 
	C71.093468,66.759331 72.407745,66.344803 73.715759,66.363686 
	C78.342728,66.430473 79.870987,64.426353 79.689697,59.704327 
	C79.345436,50.737202 79.847717,41.740784 79.719070,32.760536 
	C79.670036,29.338062 80.528099,27.025007 84.941597,26.297516 
	C85.406403,25.778051 85.871208,25.258587 86.336014,24.739124 
	C85.551437,24.464272 84.766861,24.189419 83.078621,23.655869 
	C76.731148,23.735332 70.383667,23.814796 63.296101,23.851242 
	C62.978008,24.211346 62.659916,24.571449 61.959644,25.502104 
	C59.281345,33.978310 56.603046,42.454517 53.672859,51.727882 
	C52.858368,49.812389 52.410618,48.758919 51.962502,47.705601 
	C48.625664,39.862217 45.288754,32.018856 41.357014,23.928734 
	C40.856522,23.617357 40.356030,23.305981 40.105465,22.376068 
	C40.761070,21.911074 41.416676,21.446079 42.135414,20.159389 
	C39.725975,19.429989 37.316532,18.700586 34.262257,17.775974 
	C33.666653,16.632853 32.672932,14.725634 31.493658,12.462295 
	C30.195517,15.018658 29.187101,17.004478 28.705929,17.952028 
	C25.722700,18.448093 23.852545,18.759069 21.423405,18.774487 
	C20.763737,18.572979 20.104071,18.371473 19.444405,18.169966 
	C19.821114,18.863726 20.197823,19.557487 20.671719,20.707729 
	C20.671719,20.707729 21.030144,21.006651 21.005831,21.660530 
	C20.964111,22.093344 20.922392,22.526157 20.203005,23.276762 
M71.254402,74.895531 
	C73.057327,74.599861 74.913940,74.486542 76.653191,73.974571 
	C82.024147,72.393562 87.454346,70.914124 92.616241,68.797112 
	C93.814209,68.305809 95.101608,64.688774 94.489540,63.821568 
	C93.201584,61.996719 90.682190,61.040997 88.668198,59.728573 
	C88.840805,60.288502 89.013412,60.848427 89.186028,61.408352 
	C87.075035,63.271408 85.253693,65.980156 82.793228,66.822876 
	C77.542274,68.621338 72.016090,70.039757 66.502640,70.566040 
	C52.061703,71.944489 37.570587,72.331429 23.299240,68.897400 
	C18.088192,67.643501 12.438198,66.759071 10.795447,58.900253 
	C8.293412,61.555195 6.509672,63.447945 4.725933,65.340698 
	C6.705185,67.136963 8.447299,69.369118 10.728584,70.610214 
	C13.140447,71.922348 16.030008,72.458290 18.772703,73.043823 
	C35.849575,76.689575 53.079342,76.641182 71.254402,74.895531 
M51.963917,87.280716 
	C47.812527,89.950844 47.475182,92.978821 51.293552,95.331467 
	C58.794941,99.953369 66.642349,98.453300 74.068924,95.482216 
	C80.335670,92.975136 79.221771,86.769333 79.395065,81.467957 
	C79.436974,80.185921 79.401291,78.901337 79.401291,77.472603 
	C78.373894,77.662285 77.732376,77.947418 77.142494,77.864639 
	C68.239151,76.615196 67.567451,77.154022 67.486885,85.777771 
	C67.479126,86.607735 67.524536,87.441994 67.456856,88.267006 
	C66.940582,94.560013 63.812584,96.510117 58.580482,94.827736 
	C58.824455,92.573364 59.823303,90.216019 59.076649,88.744087 
	C57.721565,86.072708 55.090229,85.658409 51.963917,87.280716 
M77.130249,9.881205 
	C75.423149,9.849047 73.697250,9.966568 72.012672,9.755046 
	C67.906303,9.239438 67.196022,12.226068 68.124573,14.656290 
	C68.940788,16.792501 71.316109,19.080221 73.492020,19.779991 
	C77.029953,20.917788 79.984413,18.863432 81.035538,15.268734 
	C81.762733,12.781816 81.268158,10.304819 77.130249,9.881205 
z"/>
<path fill="#282426" opacity="1.000000" stroke="none" 
	d="
M30.985928,59.995544 
	C31.478624,60.610733 31.971321,61.225922 32.647999,62.365150 
	C30.231621,64.321342 27.626884,65.780891 25.894152,61.781044 
	C26.134007,61.312553 26.373863,60.844067 27.043480,60.062603 
	C27.342936,59.174294 27.212627,58.598961 27.082319,58.023624 
	C27.019255,49.314259 26.956188,40.604893 27.220444,31.294727 
	C27.351530,30.132124 27.155296,29.570320 26.959063,29.008518 
	C25.463549,28.193502 23.968033,27.378487 22.495380,26.044491 
	C24.463825,25.353241 26.407030,25.145090 28.355473,25.015915 
	C32.886261,24.715534 37.419575,24.453228 41.951866,24.175491 
	C45.288754,32.018856 48.625664,39.862217 51.962502,47.705601 
	C52.410618,48.758919 52.858368,49.812389 53.672859,51.727882 
	C56.603046,42.454517 59.281345,33.978310 62.488708,25.132946 
	C63.357250,24.473946 63.696724,24.184105 64.036194,23.894260 
	C70.383667,23.814796 76.731148,23.735332 83.523422,24.172409 
	C84.000771,25.204193 84.033310,25.719437 84.065842,26.234682 
	C80.528099,27.025007 79.670036,29.338062 79.719070,32.760536 
	C79.847717,41.740784 79.345436,50.737202 79.689697,59.704327 
	C79.870987,64.426353 78.342728,66.430473 73.715759,66.363686 
	C72.407745,66.344803 71.093468,66.759331 69.252884,66.697067 
	C68.430275,66.263481 68.136856,66.107918 67.843430,65.952347 
	C67.792091,53.942020 67.740753,41.931694 67.987946,29.370228 
	C68.148521,28.556780 68.010559,28.294472 67.872597,28.032166 
	C67.197418,28.874088 66.147614,29.620256 65.904213,30.572540 
	C63.035080,41.797626 60.286655,53.053570 57.499088,64.331192 
	C48.436226,66.444305 47.350754,65.890793 44.027332,57.453842 
	C40.387875,48.214577 36.745556,38.976425 33.089397,29.743769 
	C32.757244,28.905005 32.315144,28.109779 31.083260,27.493973 
	C31.083260,37.694412 31.083260,47.894848 30.829483,58.639927 
	C30.712448,59.454891 30.849188,59.725220 30.985928,59.995544 
z"/>
<path fill="#2C282A" opacity="1.000000" stroke="none" 
	d="
M70.809128,74.951263 
	C53.079342,76.641182 35.849575,76.689575 18.772703,73.043823 
	C16.030008,72.458290 13.140447,71.922348 10.728584,70.610214 
	C8.447299,69.369118 6.705185,67.136963 4.725932,65.340698 
	C6.509672,63.447945 8.293412,61.555195 10.795447,58.900253 
	C12.438198,66.759071 18.088192,67.643501 23.299240,68.897400 
	C37.570587,72.331429 52.061703,71.944489 66.502640,70.566040 
	C72.016090,70.039757 77.542274,68.621338 82.793228,66.822876 
	C85.253693,65.980156 87.075035,63.271408 89.186028,61.408352 
	C89.013412,60.848427 88.840805,60.288502 88.668198,59.728573 
	C90.682190,61.040997 93.201584,61.996719 94.489540,63.821568 
	C95.101608,64.688774 93.814209,68.305809 92.616241,68.797112 
	C87.454346,70.914124 82.024147,72.393562 76.653191,73.974571 
	C74.913940,74.486542 73.057327,74.599861 70.809128,74.951263 
z"/>
<path fill="#292426" opacity="1.000000" stroke="none" 
	d="
M52.242290,87.507278 
	C55.090229,85.658409 57.721565,86.072708 59.076649,88.744087 
	C59.823303,90.216019 58.824455,92.573364 58.580482,94.827736 
	C63.812584,96.510117 66.940582,94.560013 67.456856,88.267006 
	C67.524536,87.441994 67.479126,86.607735 67.486885,85.777771 
	C67.567451,77.154022 68.239151,76.615196 77.142494,77.864639 
	C77.732376,77.947418 78.373894,77.662285 79.401291,77.472603 
	C79.401291,78.901337 79.436974,80.185921 79.395065,81.467957 
	C79.221771,86.769333 80.335670,92.975136 74.068924,95.482216 
	C66.642349,98.453300 58.794941,99.953369 51.293552,95.331467 
	C47.475182,92.978821 47.812527,89.950844 52.242290,87.507278 
z"/>
<path fill="#262123" opacity="1.000000" stroke="none" 
	d="
M77.521561,9.850607 
	C81.268158,10.304819 81.762733,12.781816 81.035538,15.268734 
	C79.984413,18.863432 77.029953,20.917788 73.492020,19.779991 
	C71.316109,19.080221 68.940788,16.792501 68.124573,14.656290 
	C67.196022,12.226068 67.906303,9.239438 72.012672,9.755046 
	C73.697250,9.966568 75.423149,9.849047 77.521561,9.850607 
z"/>
<path fill="#272224" opacity="1.000000" stroke="none" 
	d="
M21.030144,21.006653 
	C21.030144,21.006651 20.671719,20.707729 20.905073,20.337383 
	C21.419748,19.668039 21.701071,19.369043 21.982391,19.070049 
	C23.852545,18.759069 25.722700,18.448093 28.705929,17.952028 
	C29.187101,17.004478 30.195517,15.018658 31.493658,12.462295 
	C32.672932,14.725634 33.666653,16.632853 34.262257,17.775974 
	C37.316532,18.700586 39.725975,19.429989 41.630554,20.560471 
	C34.427177,20.976585 27.728661,20.991619 21.030144,21.006653 
z"/>
<path fill="#3F3B3D" opacity="1.000000" stroke="none" 
	d="
M25.492029,61.856483 
	C27.626884,65.780891 30.231621,64.321342 32.906212,62.509827 
	C34.589058,62.408203 36.197670,62.685936 39.302414,63.221985 
	C37.432438,64.508415 36.566143,65.604034 35.647667,65.649689 
	C31.684158,65.846672 27.701424,65.835915 23.734426,65.679337 
	C22.469467,65.629402 21.231516,64.895157 19.981209,64.474030 
	C21.042353,63.784096 22.069967,63.032455 23.178669,62.430046 
	C23.740191,62.124943 24.448151,62.089355 25.492029,61.856483 
z"/>
<path fill="#0C0508" opacity="1.000000" stroke="none" 
	d="
M41.654442,24.052113 
	C37.419575,24.453228 32.886261,24.715534 28.355473,25.015915 
	C26.407030,25.145090 24.463825,25.353241 22.231493,25.838276 
	C21.364164,25.192947 20.783585,24.234856 21.017487,23.130011 
	C27.839823,22.987041 33.847679,22.990822 39.855537,22.994602 
	C40.356030,23.305981 40.856522,23.617357 41.654442,24.052113 
z"/>
<path fill="#020101" opacity="1.000000" stroke="none" 
	d="
M39.980499,22.685335 
	C33.847679,22.990822 27.839823,22.987041 21.356319,22.971115 
	C20.922392,22.526157 20.964111,22.093344 21.017986,21.333591 
	C27.728661,20.991619 34.427177,20.976585 41.598988,20.971319 
	C41.416676,21.446079 40.761070,21.911074 39.980499,22.685335 
z"/>
<path fill="#0C0508" opacity="1.000000" stroke="none" 
	d="
M84.503723,26.266098 
	C84.033310,25.719437 84.000771,25.204193 83.975258,24.301758 
	C84.766861,24.189419 85.551437,24.464272 86.336014,24.739124 
	C85.871208,25.258587 85.406403,25.778051 84.503723,26.266098 
z"/>
<path fill="#020101" opacity="1.000000" stroke="none" 
	d="
M21.702898,18.922268 
	C21.701071,19.369043 21.419748,19.668039 20.856480,20.109142 
	C20.197823,19.557487 19.821114,18.863726 19.444405,18.169968 
	C20.104071,18.371473 20.763737,18.572979 21.702898,18.922268 
z"/>
<path fill="#010000" opacity="1.000000" stroke="none" 
	d="
M26.931858,29.337364 
	C27.155296,29.570320 27.351530,30.132124 27.315042,30.832647 
	C27.023096,30.536316 26.963875,30.101263 26.931858,29.337364 
z"/>
<path fill="#010000" opacity="1.000000" stroke="none" 
	d="
M27.020117,58.349480 
	C27.212627,58.598961 27.342936,59.174294 27.233194,59.874195 
	C26.981401,59.557617 26.969658,59.116478 27.020117,58.349480 
z"/>
<path fill="#0C0508" opacity="1.000000" stroke="none" 
	d="
M63.666145,23.872753 
	C63.696724,24.184105 63.357250,24.473946 62.679802,24.847668 
	C62.659916,24.571449 62.978008,24.211346 63.666145,23.872753 
z"/>
<path fill="#0D0509" opacity="1.000000" stroke="none" 
	d="
M67.837265,28.282406 
	C68.010559,28.294472 68.148521,28.556780 68.116653,28.917984 
	C67.898529,28.855469 67.850235,28.694057 67.837265,28.282406 
z"/>
<path fill="#000000" opacity="1.000000" stroke="none" 
	d="
M31.021378,59.749336 
	C30.849188,59.725220 30.712448,59.454891 30.749859,59.104126 
	C30.924013,59.023685 31.056828,59.503124 31.021378,59.749336 
z"/>
<path fill="#0D0509" opacity="1.000000" stroke="none" 
	d="
M67.817932,66.268509 
	C68.136856,66.107918 68.430275,66.263481 68.843376,66.639420 
	C68.572845,66.768082 68.182640,66.676376 67.817932,66.268509 
z"/>
</svg>